<!DOCTYPE svg PUBLIC "-//W3C//DTD SVG 1.1//EN" "http://www.w3.org/Graphics/SVG/1.1/DTD/svg11.dtd">
<svg version="1.1" id="Layer_1" xmlns="http://www.w3.org/2000/svg" xmlns:xlink="http://www.w3.org/1999/xlink" x="0px" y="0px" width="10px" height="9px" viewBox="0 0 10 9" enable-background="new 0 0 10 9" xml:space="preserve">
<g>
	<g>
		<path fill-rule="evenodd" clip-rule="evenodd" fill="#ABA9AA" d="M6.576,4.48l1.609-1.604c0.432-0.436,0.439-1.124-0.004-1.559    c-0.443-0.436-1.152-0.436-1.584,0L4.996,2.914L3.403,1.335c-0.446-0.434-1.145-0.45-1.579-0.017    C1.389,1.752,1.398,2.454,1.845,2.888l1.593,1.58L1.793,6.106C1.361,6.541,1.354,7.23,1.797,7.666    C2.24,8.101,2.949,8.101,3.381,7.665l1.637-1.631l1.592,1.578c0.446,0.434,1.145,0.449,1.579,0.017    c0.435-0.434,0.426-1.137-0.021-1.57L6.576,4.48z"/>
	</g>
</g>
</svg>